<svg xmlns="http://www.w3.org/2000/svg" viewBox="0 0 191.65 31.95"><defs><style>.cls-1{fill:#e95526;}</style></defs><title>Recurso 1logo</title><g id="Capa_2" data-name="Capa 2"><g id="Capa_1-2" data-name="Capa 1"><path class="cls-1" d="M21.58,2.8A11.11,11.11,0,0,0,13.9.22H0V32H8.79V20.48H13.9a10.69,10.69,0,0,0,7.57-2.79,9.79,9.79,0,0,0,3-7.53,9.36,9.36,0,0,0-2.9-7.36m-6.36,9.77a3.52,3.52,0,0,1-2.43.87h-4V7.26h4.09A3.65,3.65,0,0,1,15.29,8a2.73,2.73,0,0,1,.92,2.21,3,3,0,0,1-1,2.33"/><polygon class="cls-1" points="26.43 31.95 26.43 0.22 49.08 0.22 49.08 7.43 35.17 7.43 35.17 12.21 47.24 12.21 47.24 19.41 35.17 19.41 35.17 24.66 49.16 24.66 49.16 31.95 26.43 31.95"/><polygon class="cls-1" points="76.32 7.43 68.77 7.43 68.77 31.95 59.52 31.95 59.52 7.43 52.05 7.43 52.05 0.22 76.32 0.22 76.32 7.43"/><path class="cls-1" d="M99.32,19a10,10,0,0,0,3.56-3.65A10.37,10.37,0,0,0,104.22,10a9,9,0,0,0-3-7.27A11.89,11.89,0,0,0,93.31.22H78.85V32h8.83V20.52h3L95.48,32h9.68ZM94.5,12.57a3.38,3.38,0,0,1-2.39.87H87.63V7.26H92.2A3.46,3.46,0,0,1,94.56,8a2.76,2.76,0,0,1,.88,2.21,3,3,0,0,1-.94,2.33"/><rect class="cls-1" x="107.48" y="0.22" width="9.47" height="31.73"/><polygon class="cls-1" points="121.28 31.95 121.28 0.22 130.57 0.22 130.57 24.46 145.19 24.46 147.11 31.95 121.28 31.95"/><path class="cls-1" d="M190.81,5.32a2.85,2.85,0,0,1-4,0,2.78,2.78,0,0,1-.83-2,2.69,2.69,0,0,1,.83-2,2.76,2.76,0,0,1,2-.83,2.83,2.83,0,0,1,2,.82,2.73,2.73,0,0,1,.83,2,2.78,2.78,0,0,1-.84,2m-.38-3.71a2.31,2.31,0,0,0-3.94,1.67A2.31,2.31,0,0,0,187.15,5a2.34,2.34,0,0,0,3.28,0,2.33,2.33,0,0,0,.67-1.68,2.28,2.28,0,0,0-.67-1.67m-1,1.89.62,1.24h-.56L189,3.58h-.73V4.74h-.51V1.79h1.37a.93.93,0,0,1,.65.23.81.81,0,0,1,.26.64.84.84,0,0,1-.54.84m-1.23-1.28v.93H189a.52.52,0,0,0,.35-.13.45.45,0,0,0,.13-.35.42.42,0,0,0-.12-.33.48.48,0,0,0-.33-.12Z"/><path class="cls-1" d="M186.06,23a16,16,0,0,1-.93,2.16,13.5,13.5,0,0,1-1.6,2.31,11.25,11.25,0,0,1-2.44,2.18,12.6,12.6,0,0,1-3.47,1.54,15.92,15.92,0,0,1-4.59.63,14.31,14.31,0,0,1-10.36-4q-4.12-4-4.12-12a22,22,0,0,1,.77-6,13.86,13.86,0,0,1,2.12-4.49,12.45,12.45,0,0,1,3.22-3,13.43,13.43,0,0,1,4-1.75A17.62,17.62,0,0,1,173.07,0a16.87,16.87,0,0,1,4.7.62,11.32,11.32,0,0,1,3.49,1.63,13.78,13.78,0,0,1,2.41,2.2,10,10,0,0,1,1.54,2.31l0,.1s-7.62,5-7.63,5a8.76,8.76,0,0,0-.81-2.49,4.06,4.06,0,0,0-1.52-1.38A4.85,4.85,0,0,0,173,7.32q-5.35,0-5.36,8.49c0,3.07.52,5.28,1.56,6.61a4.83,4.83,0,0,0,4,2,4.62,4.62,0,0,0,2.33-.57,4.18,4.18,0,0,0,1.5-1.33,8.17,8.17,0,0,0,.79-1.56Z"/><path class="cls-1" d="M151.67.22H134.88v21h9.37V19.82h3.62l3.1,12H160Zm-9.81,12.61v-6h2.31l2,6Z"/></g></g></svg>