<?xml version="1.0" encoding="UTF-8"?>
<svg id="Capa_2" data-name="Capa 2" xmlns="http://www.w3.org/2000/svg" viewBox="0 0 1406.67 352.28">
  <defs>
    <style>
      .cls-1 {
        stroke-width: 0px;
      }

      .cls-1, .cls-2 {
        fill: #fff;
      }

      .cls-2 {
        stroke: #fff;
        stroke-miterlimit: 10;
        stroke-width: 2.83px;
      }
    </style>
  </defs>
  <g id="Capa_1-2" data-name="Capa 1">
    <g>
      <path class="cls-1" d="M182.2,172.72q-34.17,4.25-34.15-27.84c0-18.34,0-36.68,0-59.67-19.66,22.11-36.64,41.19-55.26,62.13-18.63-20.04-36.29-39.03-53.94-58.02-1.11.45-2.23.89-3.34,1.34,0,22.91-1.09,45.89.35,68.7,1.12,17.59-9.88,13.97-19.89,14.71-10.72.79-16.19-1.21-15.96-14.21C.82,112.66.37,65.45.47,18.24c0-4.57.51-9.15,1.04-18.24,7.71,5.22,13.44,7.72,17.28,11.93,24.13,26.46,47.84,53.3,73.27,81.78,17.14-19.12,33.69-37.51,50.16-55.98,8.17-9.16,15.88-18.74,24.39-27.55,3.45-3.57,8.49-5.59,15.57-10.07v172.62Z"/>
      <path class="cls-1" d="M1137.72.08c67.81-.23,112.28,59.28,90.19,120.7-15.11,42.01-64.57,66.06-113.08,54.98-49.02-11.19-75.98-48.14-70.85-97.06C1048.73,33.49,1088.37.24,1137.72.08ZM1138.32,145.68c32.95.17,56.7-22.73,57.25-55.21.55-32.71-23.92-57.23-56.93-57.06-33.75.18-57.84,22.69-58.23,54.39-.41,33.39,23.92,57.7,57.91,57.88Z"/>
      <path class="cls-1" d="M738.48,171.04c-2.69,1.67-3.05,2.08-3.46,2.12q-31.32,3.6-31.24-27.71c.06-42.49.42-84.98-.2-127.46-.17-11.9,3.7-15.52,15.33-15.07,23.1.9,46.33-.64,69.36.95,43.71,3.01,66.58,32.9,57.09,72.6-4.39,18.38-16.19,30.45-35.08,38.37,7.8,10.47,14.75,19.71,21.6,29.02,6.59,8.95,13.08,17.96,21.77,29.9-15,0-26.59.67-38.02-.38-3.75-.35-7.83-4.61-10.49-8.06-9.51-12.33-18.46-25.09-27.64-37.67-6.02-8.24-27.55-13.78-35.22-8.12-2.59,1.91-3.53,7.28-3.65,11.12-.42,13.61-.16,27.23-.16,40.4ZM738.6,88.63c16.24,0,30.76.5,45.22-.14,15.69-.69,25.6-11.23,25.97-26.22.35-14.22-8.75-24.88-24.17-26.18-12.65-1.07-25.47-.75-38.16-.07-3.06.16-8.34,4.04-8.46,6.43-.78,14.91-.4,29.89-.4,46.18Z"/>
      <path class="cls-1" d="M386.26,175.86c-.83-7.2-1.61-10.88-1.62-14.56-.01-47.69.37-95.38-.05-143.07-.1-11.63,3.6-15.8,15.39-15.19,23.08,1.19,46.47-.79,69.26,2.2,32.06,4.2,57,21.36,67.48,53.04,10.6,32.03,7.01,63.4-17.89,88.08-10.27,10.18-24.5,20.13-38.2,22.34-30.85,4.97-62.5,5.05-94.37,7.16ZM421.21,36.75v104.23c29.07,1.18,57.48,4.12,75.92-23.98,11.91-18.15,11.16-42.73-2.09-59.87-19.31-24.99-46.3-22.87-73.83-20.37Z"/>
      <path class="cls-1" d="M903.4,78.57c0,26.77.24,53.54-.22,80.3-.08,4.92-2.49,13.71-4.72,14-9.09,1.21-18.56.06-27.81-.95-1.02-.11-2.16-4.93-2.16-7.57.07-51.92.3-103.83.56-155.74,0-1.32.8-2.63,2.26-7.14,5.83,3.36,11.65,5.51,15.91,9.37,30.41,27.57,60.5,55.5,90.71,83.3,2.35,2.16,4.82,4.19,9.48,8.21.37-7.15.81-12.01.84-16.86.17-23.6.45-47.2.2-70.8-.09-8.44,2.87-12.26,11.52-11.56,5.16.42,10.69-.95,15.46.48,3.34,1,8.07,5.34,8.1,8.23.47,50.97.37,101.95.13,152.92-.01,2.82-2.62,8.13-3.44,8.02-4.76-.65-10.48-1.3-13.8-4.27-18.96-17.01-37.27-34.76-55.94-52.09-14.43-13.39-29.07-26.55-43.62-39.82-1.16.65-2.32,1.29-3.48,1.94Z"/>
      <path class="cls-1" d="M1406.67,173.04h-177.11c2.14-5.77,3.34-10.19,5.34-14.2,24.42-48.9,48.87-97.79,73.64-146.51,1.86-3.65,5.84-7.54,9.55-8.48,2.57-.64,7.9,2.84,9.39,5.79,26.22,52.23,52.04,104.66,77.88,157.08.76,1.54.75,3.46,1.32,6.31ZM1352.65,139.58c-11.42-23.69-21.89-45.43-33.88-70.29-12.36,25.09-23.02,46.75-34.62,70.29h68.49Z"/>
      <path class="cls-1" d="M194.62,172.49c8.06-16.67,15.06-31.45,22.31-46.1,18.59-37.59,37.12-75.22,56.17-112.58,2.21-4.33,7.21-9.08,11.56-9.81,2.73-.46,7.8,5.63,9.9,9.76,24.32,47.91,48.3,96,72.29,144.08,2.07,4.14,3.6,8.54,6.15,14.66h-178.39ZM283.77,68.15c-12.38,25.85-22.83,47.68-34.12,71.25h68.48c-11.23-23.29-21.75-45.09-34.37-71.25Z"/>
      <path class="cls-1" d="M680.69,35.54c-24.26,0-46.36.5-68.42-.21-11.22-.36-16.09,2.34-15.57,14.74,1.08,25.7-1.05,21.52,22.42,21.79,12.27.14,24.6.75,36.79-.28,12.36-1.05,16.04,4.23,14.67,15.45-.56,4.6-.57,9.26-.96,16.1-17.43,0-34.23-.1-51.04.02-23.43.18-21.52-3.14-21.54,22.36,0,1.89.15,3.78.02,5.66-.57,8.15,3.52,10.5,11.19,10.36,20.29-.36,40.6.44,60.87-.31,15.1-.56,11.62,9.6,12.17,18.06.59,9.08-.52,15.2-12.47,14.93-31.6-.7-63.23-.53-94.85-.15-9.08.11-12.39-2.77-12.32-12.1.37-49.08.35-98.16.09-147.23-.04-8.41,2.5-11.81,11.25-11.71,32.09.36,64.18.4,96.27.06,8.67-.09,12.02,3.12,11.51,11.56-.37,6.03-.07,12.11-.07,20.92Z"/>
    </g>
    <g>
      <path class="cls-2" d="M6.41,319.46c2.73,1.79,7.56,3.68,12.18,3.68,6.72,0,9.87-3.36,9.87-7.56,0-4.41-2.62-6.83-9.45-9.35-9.14-3.26-13.44-8.3-13.44-14.39,0-8.19,6.62-14.91,17.54-14.91,5.15,0,9.66,1.47,12.5,3.15l-2.31,6.72c-2-1.26-5.67-2.94-10.4-2.94-5.46,0-8.51,3.15-8.51,6.93,0,4.2,3.05,6.09,9.66,8.61,8.82,3.36,13.34,7.77,13.34,15.33,0,8.93-6.93,15.23-19.01,15.23-5.57,0-10.71-1.37-14.28-3.47l2.31-7.04Z"/>
      <path class="cls-2" d="M95.26,303.07c0,18.8-13.02,26.99-25.31,26.99-13.76,0-24.37-10.08-24.37-26.15,0-17.01,11.13-26.99,25.21-26.99s24.47,10.61,24.47,26.15ZM54.93,303.6c0,11.13,6.41,19.53,15.44,19.53s15.44-8.3,15.44-19.75c0-8.61-4.31-19.53-15.23-19.53s-15.65,10.08-15.65,19.74Z"/>
      <path class="cls-2" d="M106.92,254.34h9.24v74.57h-9.24v-74.57Z"/>
      <path class="cls-2" d="M174.24,315.05c0,5.25.11,9.87.42,13.86h-8.19l-.53-8.3h-.21c-2.42,4.1-7.77,9.45-16.8,9.45-7.98,0-17.54-4.41-17.54-22.27v-29.72h9.24v28.15c0,9.66,2.94,16.17,11.34,16.17,6.2,0,10.5-4.31,12.18-8.4.53-1.37.84-3.05.84-4.73v-31.19h9.24v36.97Z"/>
      <path class="cls-2" d="M225.81,327.02c-2.42,1.26-7.77,2.94-14.6,2.94-15.33,0-25.31-10.4-25.31-25.94s10.71-26.99,27.31-26.99c5.46,0,10.29,1.37,12.81,2.63l-2.1,7.14c-2.21-1.26-5.67-2.42-10.71-2.42-11.66,0-17.96,8.61-17.96,19.22,0,11.76,7.56,19.01,17.64,19.01,5.25,0,8.72-1.37,11.34-2.52l1.58,6.93Z"/>
      <path class="cls-2" d="M246.93,263.79c.1,3.15-2.21,5.67-5.88,5.67-3.26,0-5.57-2.52-5.57-5.67s2.42-5.78,5.78-5.78,5.67,2.52,5.67,5.78ZM236.63,328.91v-50.83h9.24v50.83h-9.24Z"/>
      <path class="cls-2" d="M307.21,303.07c0,18.8-13.02,26.99-25.31,26.99-13.76,0-24.37-10.08-24.37-26.15,0-17.01,11.13-26.99,25.21-26.99s24.47,10.61,24.47,26.15ZM266.88,303.6c0,11.13,6.41,19.53,15.44,19.53s15.44-8.3,15.44-19.75c0-8.61-4.31-19.53-15.23-19.53s-15.65,10.08-15.65,19.74Z"/>
      <path class="cls-2" d="M318.87,291.83c0-5.25-.11-9.56-.42-13.76h8.19l.53,8.4h.21c2.52-4.83,8.4-9.56,16.8-9.56,7.04,0,17.96,4.2,17.96,21.64v30.35h-9.24v-29.3c0-8.19-3.05-15.02-11.76-15.02-6.09,0-10.82,4.31-12.39,9.45-.42,1.16-.63,2.73-.63,4.31v30.56h-9.24v-37.07Z"/>
      <path class="cls-2" d="M382.31,305.17c.21,12.5,8.19,17.64,17.43,17.64,6.62,0,10.61-1.16,14.07-2.63l1.58,6.62c-3.26,1.47-8.82,3.15-16.91,3.15-15.65,0-25-10.29-25-25.63s9.03-27.41,23.84-27.41c16.59,0,21,14.6,21,23.95,0,1.89-.21,3.36-.31,4.31h-35.71ZM409.41,298.56c.1-5.88-2.42-15.02-12.81-15.02-9.35,0-13.44,8.61-14.18,15.02h26.99Z"/>
      <path class="cls-2" d="M428.52,319.46c2.73,1.79,7.56,3.68,12.18,3.68,6.72,0,9.87-3.36,9.87-7.56,0-4.41-2.62-6.83-9.45-9.35-9.14-3.26-13.44-8.3-13.44-14.39,0-8.19,6.62-14.91,17.54-14.91,5.15,0,9.66,1.47,12.5,3.15l-2.31,6.72c-2-1.26-5.67-2.94-10.4-2.94-5.46,0-8.51,3.15-8.51,6.93,0,4.2,3.05,6.09,9.66,8.61,8.82,3.36,13.34,7.77,13.34,15.33,0,8.93-6.93,15.23-19.01,15.23-5.57,0-10.71-1.37-14.28-3.47l2.31-7.04Z"/>
      <path class="cls-2" d="M503.93,263.79c.1,3.15-2.21,5.67-5.88,5.67-3.26,0-5.57-2.52-5.57-5.67s2.42-5.78,5.78-5.78,5.67,2.52,5.67,5.78ZM493.64,328.91v-50.83h9.24v50.83h-9.24Z"/>
      <path class="cls-2" d="M518.22,291.83c0-5.25-.11-9.56-.42-13.76h8.19l.53,8.4h.21c2.52-4.83,8.4-9.56,16.8-9.56,7.04,0,17.96,4.2,17.96,21.64v30.35h-9.24v-29.3c0-8.19-3.05-15.02-11.76-15.02-6.09,0-10.82,4.31-12.39,9.45-.42,1.16-.63,2.73-.63,4.31v30.56h-9.24v-37.07Z"/>
      <path class="cls-2" d="M587.22,263.48v14.6h13.23v7.04h-13.23v27.41c0,6.3,1.79,9.87,6.93,9.87,2.42,0,4.2-.31,5.36-.63l.42,6.93c-1.79.74-4.62,1.26-8.19,1.26-4.31,0-7.77-1.37-9.98-3.89-2.62-2.73-3.57-7.25-3.57-13.23v-27.73h-7.88v-7.04h7.88v-12.18l9.03-2.42Z"/>
      <path class="cls-2" d="M615.37,305.17c.21,12.5,8.19,17.64,17.43,17.64,6.62,0,10.61-1.16,14.07-2.63l1.58,6.62c-3.26,1.47-8.82,3.15-16.91,3.15-15.65,0-25-10.29-25-25.63s9.03-27.41,23.84-27.41c16.59,0,21,14.6,21,23.95,0,1.89-.21,3.36-.31,4.31h-35.71ZM642.47,298.56c.1-5.88-2.42-15.02-12.81-15.02-9.35,0-13.44,8.61-14.18,15.02h26.99Z"/>
      <path class="cls-2" d="M706.64,278.08c-.21,3.68-.42,7.77-.42,13.97v29.51c0,11.66-2.31,18.8-7.25,23.21-4.94,4.62-12.08,6.09-18.48,6.09s-12.81-1.47-16.91-4.2l2.31-7.04c3.36,2.1,8.61,3.99,14.91,3.99,9.45,0,16.38-4.94,16.38-17.75v-5.67h-.21c-2.84,4.73-8.3,8.51-16.17,8.51-12.6,0-21.63-10.71-21.63-24.79,0-17.22,11.24-26.99,22.9-26.99,8.82,0,13.65,4.62,15.86,8.82h.21l.42-7.67h8.09ZM697.08,298.14c0-1.58-.1-2.94-.53-4.2-1.68-5.36-6.2-9.77-12.92-9.77-8.82,0-15.12,7.46-15.12,19.22,0,9.98,5.04,18.27,15.02,18.27,5.67,0,10.82-3.57,12.81-9.45.53-1.58.74-3.36.74-4.94v-9.14Z"/>
      <path class="cls-2" d="M720.93,293.93c0-5.99-.11-11.13-.42-15.86h8.09l.31,9.98h.42c2.31-6.83,7.88-11.13,14.07-11.13,1.05,0,1.79.1,2.63.32v8.72c-.95-.21-1.89-.31-3.15-.31-6.51,0-11.13,4.94-12.39,11.87-.21,1.26-.42,2.73-.42,4.31v27.1h-9.14v-34.97Z"/>
      <path class="cls-2" d="M782.89,328.91l-.73-6.41h-.32c-2.84,3.99-8.3,7.56-15.54,7.56-10.29,0-15.54-7.25-15.54-14.6,0-12.29,10.92-19.01,30.56-18.9v-1.05c0-4.2-1.16-11.76-11.55-11.76-4.73,0-9.66,1.47-13.23,3.78l-2.1-6.09c4.2-2.73,10.29-4.52,16.7-4.52,15.54,0,19.33,10.61,19.33,20.8v19.01c0,4.41.21,8.72.84,12.18h-8.4ZM781.53,302.97c-10.08-.21-21.53,1.58-21.53,11.45,0,5.99,3.99,8.82,8.72,8.82,6.62,0,10.82-4.2,12.29-8.51.31-.95.52-2,.52-2.94v-8.82Z"/>
      <path class="cls-2" d="M805.37,254.34h9.24v74.57h-9.24v-74.57Z"/>
      <path class="cls-2" d="M835.3,305.17c.21,12.5,8.19,17.64,17.43,17.64,6.62,0,10.61-1.16,14.07-2.63l1.58,6.62c-3.26,1.47-8.82,3.15-16.91,3.15-15.65,0-25-10.29-25-25.63s9.03-27.41,23.84-27.41c16.59,0,21,14.6,21,23.95,0,1.89-.21,3.36-.31,4.31h-35.71ZM862.4,298.56c.1-5.88-2.42-15.02-12.81-15.02-9.35,0-13.44,8.61-14.18,15.02h26.99Z"/>
      <path class="cls-2" d="M881.52,319.46c2.73,1.79,7.56,3.68,12.18,3.68,6.72,0,9.87-3.36,9.87-7.56,0-4.41-2.62-6.83-9.45-9.35-9.14-3.26-13.44-8.3-13.44-14.39,0-8.19,6.62-14.91,17.54-14.91,5.15,0,9.66,1.47,12.5,3.15l-2.31,6.72c-2-1.26-5.67-2.94-10.4-2.94-5.46,0-8.51,3.15-8.51,6.93,0,4.2,3.05,6.09,9.66,8.61,8.82,3.36,13.34,7.77,13.34,15.33,0,8.93-6.93,15.23-19.01,15.23-5.57,0-10.71-1.37-14.28-3.47l2.31-7.04Z"/>
      <path class="cls-2" d="M951.78,305.17c.21,12.5,8.19,17.64,17.43,17.64,6.62,0,10.61-1.16,14.07-2.63l1.58,6.62c-3.26,1.47-8.82,3.15-16.91,3.15-15.65,0-25-10.29-25-25.63s9.03-27.41,23.84-27.41c16.59,0,21,14.6,21,23.95,0,1.89-.21,3.36-.31,4.31h-35.71ZM978.88,298.56c.1-5.88-2.42-15.02-12.81-15.02-9.35,0-13.44,8.61-14.18,15.02h26.99Z"/>
      <path class="cls-2" d="M999.26,291.83c0-5.25-.11-9.56-.42-13.76h8.19l.53,8.4h.21c2.52-4.83,8.4-9.56,16.8-9.56,7.04,0,17.96,4.2,17.96,21.64v30.35h-9.24v-29.3c0-8.19-3.05-15.02-11.76-15.02-6.09,0-10.82,4.31-12.39,9.45-.42,1.16-.63,2.73-.63,4.31v30.56h-9.24v-37.07Z"/>
      <path class="cls-2" d="M1079.81,291.83c0-5.25-.11-9.56-.42-13.76h8.09l.42,8.19h.32c2.83-4.83,7.56-9.35,15.96-9.35,6.93,0,12.18,4.2,14.39,10.19h.21c1.58-2.84,3.57-5.04,5.67-6.62,3.05-2.31,6.41-3.57,11.24-3.57,6.72,0,16.7,4.41,16.7,22.06v29.93h-9.03v-28.78c0-9.77-3.57-15.65-11.03-15.65-5.25,0-9.35,3.89-10.92,8.4-.42,1.26-.73,2.94-.73,4.62v31.4h-9.03v-30.46c0-8.09-3.57-13.97-10.61-13.97-5.78,0-9.98,4.62-11.45,9.24-.53,1.37-.74,2.94-.74,4.52v30.67h-9.03v-37.07Z"/>
      <path class="cls-2" d="M1195.56,328.91l-.73-6.41h-.32c-2.84,3.99-8.3,7.56-15.54,7.56-10.29,0-15.54-7.25-15.54-14.6,0-12.29,10.92-19.01,30.56-18.9v-1.05c0-4.2-1.16-11.76-11.55-11.76-4.73,0-9.66,1.47-13.23,3.78l-2.1-6.09c4.2-2.73,10.29-4.52,16.7-4.52,15.54,0,19.33,10.61,19.33,20.8v19.01c0,4.41.21,8.72.84,12.18h-8.4ZM1194.19,302.97c-10.08-.21-21.53,1.58-21.53,11.45,0,5.99,3.99,8.82,8.72,8.82,6.62,0,10.82-4.2,12.29-8.51.31-.95.52-2,.52-2.94v-8.82Z"/>
      <path class="cls-2" d="M1261.94,254.34v61.44c0,4.52.1,9.66.42,13.13h-8.3l-.42-8.82h-.21c-2.84,5.67-9.03,9.98-17.33,9.98-12.29,0-21.74-10.4-21.74-25.84-.11-16.91,10.4-27.31,22.79-27.31,7.77,0,13.02,3.68,15.33,7.77h.21v-30.35h9.24ZM1252.69,298.77c0-1.16-.1-2.73-.42-3.89-1.37-5.88-6.41-10.71-13.34-10.71-9.56,0-15.23,8.4-15.23,19.64,0,10.29,5.04,18.8,15.02,18.8,6.2,0,11.87-4.1,13.55-11.03.32-1.26.42-2.52.42-3.99v-8.82Z"/>
      <path class="cls-2" d="M1282.42,305.17c.21,12.5,8.19,17.64,17.43,17.64,6.62,0,10.61-1.16,14.07-2.63l1.58,6.62c-3.26,1.47-8.82,3.15-16.91,3.15-15.65,0-25-10.29-25-25.63s9.03-27.41,23.84-27.41c16.59,0,21,14.6,21,23.95,0,1.89-.21,3.36-.31,4.31h-35.71ZM1309.51,298.56c.1-5.88-2.42-15.02-12.81-15.02-9.35,0-13.44,8.61-14.18,15.02h26.99Z"/>
      <path class="cls-2" d="M1329.89,293.93c0-5.99-.11-11.13-.42-15.86h8.09l.31,9.98h.42c2.31-6.83,7.88-11.13,14.07-11.13,1.05,0,1.79.1,2.63.32v8.72c-.95-.21-1.89-.31-3.15-.31-6.51,0-11.13,4.94-12.39,11.87-.21,1.26-.42,2.73-.42,4.31v27.1h-9.14v-34.97Z"/>
      <path class="cls-2" d="M1391.86,328.91l-.73-6.41h-.32c-2.84,3.99-8.3,7.56-15.54,7.56-10.29,0-15.54-7.25-15.54-14.6,0-12.29,10.92-19.01,30.56-18.9v-1.05c0-4.2-1.16-11.76-11.55-11.76-4.73,0-9.66,1.47-13.23,3.78l-2.1-6.09c4.2-2.73,10.29-4.52,16.7-4.52,15.54,0,19.33,10.61,19.33,20.8v19.01c0,4.41.21,8.72.84,12.18h-8.4ZM1390.49,302.97c-10.08-.21-21.53,1.58-21.53,11.45,0,5.99,3.99,8.82,8.72,8.82,6.62,0,10.82-4.2,12.29-8.51.31-.95.52-2,.52-2.94v-8.82Z"/>
    </g>
  </g>
</svg>